# xmcd
#
# Track frame offsets:
#	150
#	19099
#	29966
#	46255
#	57823
#	70285
#	82065
#	92646
#	109541
#	122678
#
# Disc length: 1766 seconds
#
# Revision: 0
# Processed by: cddbd v1.4PL0 Copyright (c) Steve Scherf et al.
# Submitted via: dBpowerAMP V4.0
#
DISCID=8306e40a
DTITLE=Caroll Edwards - Sings Swiss Air 111
DYEAR=2000
DGENRE=Country
TTITLE0=Swiss Air 111
TTITLE1=There's A Padlock on Your Heart - Wilf Carter
TTITLE2=Beautiful Campobello Island 
TTITLE3=My Brother 
TTITLE4=Who Will Buy the Wine - B. Mize
TTITLE5=Under the Influence of Love - Buck Owens/Harlan Howard
TTITLE6=Misery Known as Heartache - J.D. Wair/J. Fox
TTITLE7=Isle of Newfoundland - Bert Cuff
TTITLE8=Honky Tonk Itis - T. Atchison
TTITLE9=Wait a Little Longer Please Jesus - Hazel Houser/Chester Smith
EXTD=Swiss Air 111
EXTT0=
EXTT1=
EXTT2=
EXTT3=
EXTT4=
EXTT5=
EXTT6=
EXTT7=
EXTT8=
EXTT9=
PLAYORDER=
